<svg width="43" height="40" viewBox="0 0 43 40" fill="none" xmlns="http://www.w3.org/2000/svg">
<path d="M19.5742 6.49931C19.5742 6.49931 26.8583 4.48503 31.1551 10.3134L38.9412 6.10823C38.9412 6.10823 33.2554 -2.41566 19.5742 0.675148V6.49931Z" fill="#00C853"/>
<path d="M17.3985 7.13859L16.1518 1.73914C16.1518 1.73914 9.49529 3.92583 4.49561 10.3892L10.0308 12.66C10.0308 12.6558 12.4365 8.97204 17.3985 7.13859Z" fill="#FF9100"/>
<path d="M8.86387 14.5397C8.86387 14.5397 7.8723 16.2891 7.5878 18.7785L0.178223 20.1452C0.178223 20.1452 0.462723 17.2436 2.54628 13.3496L8.86387 14.5397Z" fill="#F44336"/>
<path d="M7.60855 20.8222C7.60855 20.8222 8.00602 26.6547 14.2232 28.2779C19.5743 29.6741 23.9381 27.2477 23.9381 27.2477L19.089 16.9366C19.089 16.9366 18.9175 16.6506 19.3609 16.3016C19.8002 15.9526 20.0596 16.1881 20.0596 16.1881L29.7996 22.622C29.7996 22.622 34.0964 17.58 32.0589 12.1175L40.732 9.03088C40.732 9.03088 45.3216 17.6809 37.5397 27.7397L41.6691 30.4688C41.6691 30.4688 42.1419 30.7884 41.6022 31.3603L30.7242 39.838C30.7242 39.838 30.1887 40.2627 29.8122 39.737L27.8374 35.5319C27.8374 35.5319 19.3777 40.1239 10.4828 37.0668C1.25331 33.8919 -0.0645995 25.5236 0.00234181 23.5345L7.60855 20.8222Z" fill="black"/>
</svg>