<svg width="140" height="40" viewBox="0 0 140 40" fill="none" xmlns="http://www.w3.org/2000/svg">
<path d="M53.1476 26.8524C51.7126 26.8524 50.4993 26.6211 49.5161 26.1543C48.5329 25.6918 47.7798 25.0231 47.2568 24.1569C46.7338 23.2906 46.4409 22.2519 46.3698 21.0493C46.3531 20.7044 46.3447 20.3134 46.3447 19.876C46.3447 19.4387 46.3531 19.056 46.3698 18.728C46.4368 17.5085 46.7464 16.4698 47.2944 15.6078C47.8425 14.7499 48.6082 14.0855 49.5914 13.6229C50.5746 13.1604 51.7586 12.9249 53.1434 12.9249C54.545 12.9249 55.7374 13.1562 56.7206 13.6229C57.7038 14.0855 58.4695 14.7499 59.0175 15.6078C59.5656 16.4656 59.871 17.5085 59.9422 18.728C59.9589 19.056 59.9673 19.4387 59.9673 19.876C59.9673 20.3134 59.9589 20.7044 59.9422 21.0493C59.8752 22.2519 59.5782 23.2864 59.0594 24.1569C58.5364 25.0231 57.7833 25.6918 56.8001 26.1543C55.8211 26.6211 54.6036 26.8524 53.1476 26.8524ZM53.1476 23.7069C53.9174 23.7069 54.4781 23.4756 54.8295 23.0089C55.181 22.5463 55.3818 21.8482 55.432 20.9189C55.4487 20.6624 55.4571 20.3176 55.4571 19.8886C55.4571 19.4597 55.4487 19.1149 55.432 18.8584C55.3818 17.9458 55.181 17.2562 54.8295 16.781C54.4781 16.31 53.9174 16.0703 53.1476 16.0703C52.4113 16.0703 51.859 16.3058 51.495 16.781C51.1268 17.252 50.926 17.9458 50.8925 18.8584C50.8758 19.1149 50.8674 19.4597 50.8674 19.8886C50.8674 20.3176 50.8758 20.6624 50.8925 20.9189C50.926 21.8482 51.1268 22.5421 51.495 23.0089C51.8632 23.4756 52.4154 23.7069 53.1476 23.7069Z" fill="black"/>
<path d="M63.8667 26.5959C63.6785 26.5959 63.5237 26.5329 63.4065 26.4025C63.2852 26.2722 63.2266 26.125 63.2266 25.9526V13.8333C63.2266 13.644 63.2852 13.4884 63.4065 13.3707C63.5279 13.2487 63.6785 13.1899 63.8667 13.1899H66.8164C67.0046 13.1899 67.1636 13.2487 67.2891 13.3707C67.4188 13.4926 67.4816 13.644 67.4816 13.8333V14.8131C67.9083 14.279 68.4815 13.8333 69.2011 13.4716C69.9208 13.11 70.7659 12.9291 71.7407 12.9291C72.7319 12.9291 73.6069 13.152 74.3679 13.5978C75.1299 14.0435 75.7279 14.6995 76.1629 15.5574C76.5979 16.4152 76.8159 17.4833 76.8159 18.7533V25.9484C76.8159 26.1208 76.7569 26.2722 76.6359 26.3983C76.5149 26.5287 76.3639 26.5917 76.1759 26.5917H72.9419C72.7699 26.5917 72.6189 26.5287 72.4939 26.3983C72.3639 26.2679 72.3009 26.1208 72.3009 25.9484V18.9131C72.3009 18.1057 72.1089 17.4833 71.724 17.0418C71.3391 16.6045 70.7701 16.3858 70.017 16.3858C69.3141 16.3858 68.7577 16.6045 68.3351 17.0418C67.9167 17.4791 67.7075 18.1015 67.7075 18.9131V25.9526C67.7075 26.125 67.6447 26.2764 67.515 26.4025C67.3853 26.5329 67.2389 26.5959 67.0674 26.5959H63.8667Z" fill="black"/>
<path d="M81.0751 26.5959C80.8871 26.5959 80.7321 26.5329 80.6151 26.4025C80.4931 26.2722 80.4351 26.125 80.4351 25.9526V13.8333C80.4351 13.644 80.4931 13.4884 80.6151 13.3707C80.7361 13.2487 80.8871 13.1899 81.0751 13.1899H84.0241C84.2131 13.1899 84.3721 13.2487 84.4971 13.3707C84.6271 13.4926 84.6901 13.644 84.6901 13.8333V14.8131C85.1161 14.279 85.6901 13.8333 86.4091 13.4716C87.1291 13.11 87.9741 12.9291 88.9491 12.9291C89.9401 12.9291 90.8151 13.152 91.5761 13.5978C92.3381 14.0435 92.9361 14.6995 93.3711 15.5574C93.8061 16.4152 94.0241 17.4833 94.0241 18.7533V25.9484C94.0241 26.1208 93.9651 26.2722 93.8441 26.3983C93.7231 26.5287 93.5721 26.5917 93.3841 26.5917H90.1501C89.9781 26.5917 89.8271 26.5287 89.7021 26.3983C89.5721 26.2679 89.5091 26.1208 89.5091 25.9484V18.9131C89.5091 18.1057 89.3171 17.4833 88.9321 17.0418C88.5471 16.6045 87.9781 16.3858 87.2251 16.3858C86.5221 16.3858 85.9661 16.6045 85.5431 17.0418C85.1251 17.4791 84.9161 18.1015 84.9161 18.9131V25.9526C84.9161 26.125 84.8531 26.2764 84.7231 26.4025C84.5931 26.5329 84.4471 26.5959 84.2761 26.5959H81.0751Z" fill="black"/>
<path d="M104.153 26.8524C102.136 26.8524 100.526 26.3016 99.3291 25.2041C98.1321 24.1065 97.5091 22.4706 97.4551 20.305C97.4551 20.1872 97.4551 20.0316 97.4551 19.8424C97.4551 19.6532 97.4551 19.5061 97.4551 19.4051C97.5051 18.0469 97.8101 16.8819 98.3671 15.9105C98.9231 14.9392 99.6931 14.199 100.676 13.6944C101.659 13.1856 102.81 12.9333 104.128 12.9333C105.634 12.9333 106.877 13.2362 107.86 13.8375C108.843 14.4388 109.584 15.2545 110.077 16.2848C110.571 17.3151 110.822 18.4925 110.822 19.8172V20.4354C110.822 20.6246 110.763 20.7801 110.642 20.8979C110.521 21.0198 110.37 21.0787 110.182 21.0787H101.973C101.973 21.0955 101.973 21.1208 101.973 21.1544C101.973 21.188 101.973 21.2218 101.973 21.2596C101.99 21.76 102.078 22.2141 102.241 22.6262C102.404 23.0383 102.643 23.3664 102.961 23.6061C103.279 23.8458 103.668 23.9677 104.128 23.9677C104.471 23.9677 104.755 23.913 104.986 23.7995C105.216 23.6859 105.408 23.5598 105.563 23.4126C105.718 23.2654 105.835 23.1434 105.923 23.0383C106.078 22.8491 106.199 22.7314 106.295 22.6894C106.387 22.6473 106.538 22.6262 106.743 22.6262H109.922C110.094 22.6262 110.236 22.6767 110.345 22.7818C110.454 22.8869 110.504 23.0215 110.487 23.1939C110.471 23.4883 110.324 23.8373 110.052 24.2494C109.78 24.6615 109.383 25.0695 108.86 25.4732C108.337 25.8769 107.684 26.209 106.898 26.4655C106.111 26.722 105.195 26.8524 104.153 26.8524ZM101.973 18.5262H106.308V18.4757C106.308 17.908 106.228 17.4245 106.065 17.0208C105.902 16.6171 105.655 16.3016 105.32 16.0788C104.986 15.8559 104.588 15.7423 104.128 15.7423C103.684 15.7423 103.299 15.8559 102.973 16.0788C102.647 16.3016 102.4 16.6171 102.228 17.0208C102.057 17.4245 101.973 17.908 101.973 18.4757V18.5262Z" fill="black"/>
<path d="M120.077 26.8524C118.813 26.8524 117.692 26.6212 116.717 26.1544C115.742 25.6919 114.968 25.0148 114.395 24.1318C113.822 23.2487 113.512 22.1847 113.458 20.9483C113.441 20.675 113.433 20.3261 113.433 19.9056C113.433 19.485 113.441 19.1359 113.458 18.8626C113.508 17.6094 113.818 16.5371 114.382 15.654C114.947 14.7709 115.721 14.0939 116.704 13.6313C117.688 13.1688 118.813 12.9333 120.077 12.9333C121.256 12.9333 122.269 13.1015 123.118 13.4379C123.968 13.7743 124.65 14.1906 125.168 14.6868C125.691 15.1873 126.085 15.6962 126.348 16.2218C126.612 16.7475 126.754 17.2057 126.771 17.601C126.787 17.7734 126.729 17.9249 126.591 18.0511C126.453 18.1814 126.298 18.2444 126.131 18.2444H122.871C122.683 18.2444 122.537 18.2024 122.436 18.1141C122.332 18.03 122.24 17.8996 122.156 17.7272C121.951 17.1931 121.692 16.8148 121.374 16.5919C121.056 16.369 120.65 16.2554 120.156 16.2554C119.474 16.2554 118.947 16.4782 118.579 16.924C118.211 17.3697 118.01 18.0595 117.976 18.9846C117.96 19.6743 117.96 20.284 117.976 20.8139C118.027 21.76 118.232 22.4454 118.591 22.8743C118.951 23.3032 119.47 23.5177 120.156 23.5177C120.687 23.5177 121.106 23.4 121.411 23.1687C121.721 22.9374 121.968 22.5631 122.156 22.0459C122.24 21.8735 122.336 21.7431 122.436 21.659C122.541 21.5749 122.683 21.5287 122.871 21.5287H126.131C126.302 21.5287 126.457 21.5875 126.591 21.7095C126.729 21.8314 126.787 21.9828 126.771 22.1721C126.754 22.4454 126.666 22.7818 126.516 23.1771C126.361 23.5724 126.122 23.9846 125.796 24.4135C125.47 24.8424 125.047 25.2376 124.528 25.5993C124.005 25.9609 123.378 26.2554 122.641 26.4867C121.905 26.739 121.051 26.8524 120.077 26.8524Z" fill="black"/>
<path d="M136.971 26.5959C135.875 26.5959 134.933 26.4193 134.138 26.066C133.344 25.7128 132.733 25.1619 132.306 24.4176C131.879 23.6691 131.666 22.7019 131.666 21.516V16.5666H129.666C129.478 16.5666 129.319 16.5077 129.193 16.3857C129.063 16.2638 129.001 16.1124 129.001 15.9232V13.8332C129.001 13.644 129.063 13.4884 129.193 13.3706C129.323 13.2487 129.478 13.1898 129.666 13.1898H131.666V8.93416C131.666 8.74493 131.729 8.58934 131.858 8.47159C131.988 8.34964 132.134 8.29077 132.306 8.29077H135.281C135.469 8.29077 135.624 8.34964 135.741 8.47159C135.862 8.59354 135.921 8.74493 135.921 8.93416V13.1898H139.126C139.314 13.1898 139.473 13.2487 139.598 13.3706C139.728 13.4926 139.791 13.644 139.791 13.8332V15.9232C139.791 16.1124 139.728 16.268 139.598 16.3857C139.469 16.5077 139.314 16.5666 139.126 16.5666H135.921V21.1544C135.921 21.7389 136.034 22.2015 136.255 22.5463C136.477 22.8911 136.854 23.0635 137.385 23.0635H139.36C139.548 23.0635 139.703 23.1224 139.82 23.2444C139.937 23.3663 140 23.5177 140 23.7069V25.9483C140 26.1207 139.941 26.2721 139.82 26.3982C139.699 26.5286 139.548 26.5917 139.36 26.5917H136.971V26.5959Z" fill="black"/>
<path d="M19.5742 6.49919C19.5742 6.49919 26.8583 4.48491 31.1551 10.3132L38.9412 6.10811C38.9412 6.10811 33.2554 -2.41578 19.5742 0.675026V6.49919Z" fill="#00C853"/>
<path d="M17.3985 7.13846L16.1518 1.73901C16.1518 1.73901 9.49529 3.9257 4.49561 10.389L10.0308 12.6598C10.0308 12.6556 12.4365 8.97191 17.3985 7.13846Z" fill="#FF9100"/>
<path d="M8.86387 14.5396C8.86387 14.5396 7.8723 16.289 7.5878 18.7784L0.178223 20.1451C0.178223 20.1451 0.462723 17.2435 2.54628 13.3495L8.86387 14.5396Z" fill="#F44336"/>
<path d="M7.60855 20.8221C7.60855 20.8221 8.00602 26.6546 14.2232 28.2778C19.5743 29.674 23.9381 27.2476 23.9381 27.2476L19.089 16.9365C19.089 16.9365 18.9175 16.6505 19.3609 16.3015C19.8002 15.9525 20.0596 16.188 20.0596 16.188L29.7996 22.6219C29.7996 22.6219 34.0964 17.5799 32.0589 12.1174L40.732 9.03076C40.732 9.03076 45.3216 17.6808 37.5397 27.7396L41.6691 30.4687C41.6691 30.4687 42.1419 30.7883 41.6022 31.3602L30.7242 39.8379C30.7242 39.8379 30.1887 40.2626 29.8122 39.7369L27.8374 35.5318C27.8374 35.5318 19.3777 40.1238 10.4828 37.0667C1.25331 33.8918 -0.0645995 25.5235 0.00234181 23.5344L7.60855 20.8221Z" fill="black"/>
</svg>
