<svg width="168" height="40" viewBox="0 0 168 40" fill="none" xmlns="http://www.w3.org/2000/svg">
<path d="M67.5378 29.0391C67.2742 29.0391 67.0692 28.9802 66.9311 28.8583C66.7889 28.7363 66.6801 28.6354 66.5964 28.5471L65.7555 27.5841C65.1112 27.7691 64.3748 27.8617 63.5506 27.8617C62.0277 27.8617 60.7098 27.6472 59.5969 27.2183C58.4798 26.7893 57.6054 26.1459 56.9694 25.2839C56.3335 24.4218 55.9904 23.3411 55.9402 22.0459C55.9235 21.432 55.9151 20.818 55.9151 20.1956C55.9151 19.5775 55.9235 18.9593 55.9402 18.3454C55.9904 17.0628 56.3377 15.982 56.982 15.1074C57.6263 14.2327 58.5091 13.5725 59.6345 13.1309C60.76 12.6894 62.0653 12.4665 63.5506 12.4665C65.0526 12.4665 66.3705 12.6894 67.4918 13.1309C68.6172 13.5725 69.5042 14.2327 70.1569 15.1074C70.8096 15.982 71.1526 17.0628 71.1861 18.3454C71.2196 18.9593 71.2363 19.5733 71.2363 20.1956C71.2363 20.8138 71.2196 21.432 71.1861 22.0459C71.1024 23.8121 70.5083 25.183 69.3996 26.1502L71.2112 28.3747C71.2279 28.3873 71.2447 28.4167 71.2614 28.4588C71.2782 28.5008 71.2865 28.5429 71.2865 28.5892C71.3033 28.7027 71.2614 28.8078 71.161 28.9003C71.0606 28.9929 70.9393 29.0391 70.7886 29.0391H67.5378ZM63.5464 24.7835C64.4208 24.7835 65.1363 24.5564 65.6927 24.098C66.245 23.6439 66.5379 22.9164 66.5713 21.9155C66.6048 21.289 66.6215 20.696 66.6215 20.141C66.6215 19.5859 66.6048 19.0056 66.5713 18.4084C66.5546 17.7398 66.4123 17.1931 66.1488 16.7726C65.8852 16.3521 65.5337 16.0409 65.0944 15.8433C64.6551 15.6456 64.1405 15.5447 63.5464 15.5447C62.9858 15.5447 62.4795 15.6456 62.0361 15.8433C61.5884 16.0451 61.2369 16.3521 60.9817 16.7726C60.7265 17.1931 60.5801 17.7398 60.5466 18.4084C60.5299 19.0056 60.5215 19.5859 60.5215 20.141C60.5215 20.696 60.5299 21.289 60.5466 21.9155C60.5968 22.9122 60.8939 23.6397 61.4378 24.098C61.9858 24.5564 62.6887 24.7835 63.5464 24.7835Z" fill="white"/>
<path d="M81.1478 26.8524C79.7128 26.8524 78.4995 26.6211 77.5163 26.1543C76.5331 25.6918 75.78 25.0231 75.257 24.1569C74.734 23.2906 74.4411 22.2519 74.37 21.0493C74.3533 20.7044 74.3449 20.3134 74.3449 19.876C74.3449 19.4387 74.3533 19.056 74.37 18.728C74.437 17.5085 74.7466 16.4698 75.2946 15.6078C75.8427 14.7499 76.6084 14.0855 77.5916 13.6229C78.5748 13.1604 79.7588 12.9249 81.1436 12.9249C82.5452 12.9249 83.7376 13.1562 84.7208 13.6229C85.704 14.0855 86.4697 14.7499 87.0177 15.6078C87.5658 16.4656 87.8712 17.5085 87.9424 18.728C87.9591 19.056 87.9675 19.4387 87.9675 19.876C87.9675 20.3134 87.9591 20.7044 87.9424 21.0493C87.8754 22.2519 87.5784 23.2864 87.0596 24.1569C86.5366 25.0231 85.7835 25.6918 84.8003 26.1543C83.8213 26.6211 82.6038 26.8524 81.1478 26.8524ZM81.1478 23.7069C81.9176 23.7069 82.4783 23.4756 82.8297 23.0089C83.1812 22.5463 83.382 21.8482 83.4322 20.9189C83.4489 20.6624 83.4573 20.3176 83.4573 19.8886C83.4573 19.4597 83.4489 19.1149 83.4322 18.8584C83.382 17.9458 83.1812 17.2562 82.8297 16.781C82.4783 16.31 81.9176 16.0703 81.1478 16.0703C80.4115 16.0703 79.8592 16.3058 79.4952 16.781C79.127 17.252 78.9262 17.9458 78.8927 18.8584C78.876 19.1149 78.8676 19.4597 78.8676 19.8886C78.8676 20.3176 78.876 20.6624 78.8927 20.9189C78.9262 21.8482 79.127 22.5421 79.4952 23.0089C79.8634 23.4756 80.4156 23.7069 81.1478 23.7069Z" fill="white"/>
<path d="M91.8668 26.5959C91.6786 26.5959 91.5238 26.5329 91.4066 26.4025C91.2853 26.2722 91.2267 26.125 91.2267 25.9526V13.8333C91.2267 13.644 91.2853 13.4884 91.4066 13.3707C91.528 13.2487 91.6786 13.1899 91.8668 13.1899H94.8165C95.0047 13.1899 95.1637 13.2487 95.2892 13.3707C95.4189 13.4926 95.4817 13.644 95.4817 13.8333V14.8131C95.9084 14.279 96.4816 13.8333 97.2012 13.4716C97.9209 13.11 98.766 12.9291 99.7408 12.9291C100.732 12.9291 101.607 13.152 102.368 13.5978C103.13 14.0435 103.728 14.6995 104.163 15.5574C104.598 16.4152 104.816 17.4833 104.816 18.7533V25.9484C104.816 26.1208 104.757 26.2722 104.636 26.3983C104.515 26.5287 104.364 26.5917 104.176 26.5917H100.942C100.77 26.5917 100.619 26.5287 100.494 26.3983C100.364 26.2679 100.301 26.1208 100.301 25.9484V18.9131C100.301 18.1057 100.109 17.4833 99.7241 17.0418C99.3392 16.6045 98.7702 16.3858 98.0171 16.3858C97.3142 16.3858 96.7578 16.6045 96.3352 17.0418C95.9168 17.4791 95.7076 18.1015 95.7076 18.9131V25.9526C95.7076 26.125 95.6448 26.2764 95.5151 26.4025C95.3854 26.5329 95.239 26.5959 95.0675 26.5959H91.8668Z" fill="white"/>
<path d="M109.075 26.5959C108.887 26.5959 108.732 26.5329 108.615 26.4025C108.493 26.2722 108.435 26.125 108.435 25.9526V13.8333C108.435 13.644 108.493 13.4884 108.615 13.3707C108.736 13.2487 108.887 13.1899 109.075 13.1899H112.024C112.213 13.1899 112.372 13.2487 112.497 13.3707C112.627 13.4926 112.69 13.644 112.69 13.8333V14.8131C113.116 14.279 113.69 13.8333 114.409 13.4716C115.129 13.11 115.974 12.9291 116.949 12.9291C117.94 12.9291 118.815 13.152 119.576 13.5978C120.338 14.0435 120.936 14.6995 121.371 15.5574C121.806 16.4152 122.024 17.4833 122.024 18.7533V25.9484C122.024 26.1208 121.965 26.2722 121.844 26.3983C121.723 26.5287 121.572 26.5917 121.384 26.5917H118.15C117.978 26.5917 117.827 26.5287 117.702 26.3983C117.572 26.2679 117.509 26.1208 117.509 25.9484V18.9131C117.509 18.1057 117.317 17.4833 116.932 17.0418C116.547 16.6045 115.978 16.3858 115.225 16.3858C114.522 16.3858 113.966 16.6045 113.543 17.0418C113.125 17.4791 112.916 18.1015 112.916 18.9131V25.9526C112.916 26.125 112.853 26.2764 112.723 26.4025C112.593 26.5329 112.447 26.5959 112.276 26.5959H109.075Z" fill="white"/>
<path d="M132.153 26.8524C130.136 26.8524 128.526 26.3015 127.329 25.204C126.132 24.1064 125.509 22.4706 125.455 20.305C125.455 20.1872 125.455 20.0316 125.455 19.8424C125.455 19.6532 125.455 19.506 125.455 19.405C125.505 18.0468 125.81 16.8819 126.367 15.9105C126.923 14.9392 127.693 14.199 128.676 13.6944C129.659 13.1856 130.81 12.9333 132.128 12.9333C133.634 12.9333 134.877 13.2361 135.86 13.8374C136.843 14.4387 137.584 15.2545 138.077 16.2848C138.571 17.3151 138.822 18.4925 138.822 19.8172V20.4353C138.822 20.6245 138.763 20.7801 138.642 20.8979C138.521 21.0198 138.37 21.0787 138.182 21.0787H129.973C129.973 21.0955 129.973 21.1208 129.973 21.1544C129.973 21.188 129.973 21.2217 129.973 21.2595C129.99 21.7599 130.078 22.2141 130.241 22.6262C130.404 23.0383 130.643 23.3663 130.961 23.606C131.279 23.8457 131.668 23.9677 132.128 23.9677C132.471 23.9677 132.755 23.913 132.986 23.7995C133.216 23.6859 133.408 23.5598 133.563 23.4126C133.718 23.2654 133.835 23.1434 133.923 23.0383C134.078 22.8491 134.199 22.7313 134.295 22.6893C134.387 22.6472 134.538 22.6262 134.743 22.6262H137.922C138.094 22.6262 138.236 22.6767 138.345 22.7818C138.454 22.8869 138.504 23.0215 138.487 23.1939C138.471 23.4883 138.324 23.8373 138.052 24.2494C137.78 24.6615 137.383 25.0694 136.86 25.4731C136.337 25.8768 135.684 26.209 134.898 26.4655C134.111 26.722 133.195 26.8524 132.153 26.8524ZM129.973 18.5262H134.308V18.4757C134.308 17.908 134.228 17.4244 134.065 17.0207C133.902 16.617 133.655 16.3016 133.32 16.0788C132.986 15.8559 132.588 15.7423 132.128 15.7423C131.684 15.7423 131.299 15.8559 130.973 16.0788C130.647 16.3016 130.4 16.617 130.228 17.0207C130.057 17.4244 129.973 17.908 129.973 18.4757V18.5262Z" fill="white"/>
<path d="M148.077 26.8524C146.813 26.8524 145.692 26.6211 144.717 26.1543C143.742 25.6918 142.968 25.0147 142.395 24.1317C141.822 23.2486 141.512 22.1847 141.458 20.9483C141.441 20.675 141.433 20.326 141.433 19.9055C141.433 19.4849 141.441 19.1359 141.458 18.8626C141.508 17.6094 141.818 16.5371 142.382 15.654C142.947 14.7709 143.721 14.0939 144.704 13.6313C145.688 13.1688 146.813 12.9333 148.077 12.9333C149.256 12.9333 150.269 13.1015 151.118 13.4379C151.968 13.7743 152.65 14.1906 153.168 14.6868C153.691 15.1873 154.085 15.6961 154.348 16.2217C154.612 16.7474 154.754 17.2057 154.771 17.601C154.787 17.7734 154.729 17.9248 154.591 18.051C154.453 18.1813 154.298 18.2444 154.131 18.2444H150.871C150.683 18.2444 150.537 18.2024 150.436 18.1141C150.332 18.03 150.24 17.8996 150.156 17.7272C149.951 17.1931 149.692 16.8147 149.374 16.5918C149.056 16.3689 148.65 16.2554 148.156 16.2554C147.474 16.2554 146.947 16.4782 146.579 16.924C146.211 17.3697 146.01 18.0594 145.976 18.9845C145.96 19.6742 145.96 20.2839 145.976 20.8138C146.027 21.7599 146.232 22.4454 146.591 22.8743C146.951 23.3032 147.47 23.5177 148.156 23.5177C148.687 23.5177 149.106 23.4 149.411 23.1687C149.721 22.9374 149.968 22.5631 150.156 22.0459C150.24 21.8735 150.336 21.7431 150.436 21.659C150.541 21.5749 150.683 21.5287 150.871 21.5287H154.131C154.302 21.5287 154.457 21.5875 154.591 21.7095C154.729 21.8314 154.787 21.9828 154.771 22.1721C154.754 22.4454 154.666 22.7818 154.516 23.1771C154.361 23.5724 154.122 23.9845 153.796 24.4134C153.47 24.8423 153.047 25.2376 152.528 25.5993C152.005 25.9609 151.378 26.2553 150.641 26.4866C149.905 26.7389 149.051 26.8524 148.077 26.8524Z" fill="white"/>
<path d="M164.971 26.5959C163.875 26.5959 162.933 26.4193 162.138 26.066C161.344 25.7128 160.733 25.1619 160.306 24.4176C159.879 23.6691 159.666 22.7019 159.666 21.516V16.5666H157.666C157.478 16.5666 157.319 16.5077 157.193 16.3857C157.063 16.2638 157.001 16.1124 157.001 15.9232V13.8332C157.001 13.644 157.063 13.4884 157.193 13.3706C157.323 13.2487 157.478 13.1898 157.666 13.1898H159.666V8.93416C159.666 8.74493 159.729 8.58934 159.858 8.47159C159.988 8.34964 160.134 8.29077 160.306 8.29077H163.281C163.469 8.29077 163.624 8.34964 163.741 8.47159C163.862 8.59354 163.921 8.74493 163.921 8.93416V13.1898H167.126C167.314 13.1898 167.473 13.2487 167.598 13.3706C167.728 13.4926 167.791 13.644 167.791 13.8332V15.9232C167.791 16.1124 167.728 16.268 167.598 16.3857C167.469 16.5077 167.314 16.5666 167.126 16.5666H163.921V21.1544C163.921 21.7389 164.034 22.2015 164.255 22.5463C164.477 22.8911 164.854 23.0635 165.385 23.0635H167.36C167.548 23.0635 167.703 23.1224 167.82 23.2444C167.937 23.3663 168 23.5177 168 23.7069V25.9483C168 26.1207 167.941 26.2721 167.82 26.3982C167.699 26.5286 167.548 26.5917 167.36 26.5917H164.971V26.5959Z" fill="white"/>
<path d="M19.5743 6.49925C19.5743 6.49925 26.8584 4.48497 31.1552 10.3133L38.9413 6.10817C38.9413 6.10817 33.2555 -2.41572 19.5743 0.675086V6.49925Z" fill="#00C853"/>
<path d="M17.3987 7.13843L16.152 1.73898C16.152 1.73898 9.49547 3.92567 4.49579 10.389L10.031 12.6598C10.031 12.6556 12.4367 8.97188 17.3987 7.13843Z" fill="#FF9100"/>
<path d="M8.86405 14.5396C8.86405 14.5396 7.87248 16.289 7.58798 18.7784L0.178406 20.1451C0.178406 20.1451 0.462906 17.2435 2.54646 13.3495L8.86405 14.5396Z" fill="#F44336"/>
<path d="M7.60855 20.8221C7.60855 20.8221 8.00602 26.6546 14.2232 28.2778C19.5743 29.674 23.9381 27.2476 23.9381 27.2476L19.089 16.9365C19.089 16.9365 18.9175 16.6505 19.3609 16.3015C19.8002 15.9525 20.0596 16.188 20.0596 16.188L29.7996 22.6219C29.7996 22.6219 34.0964 17.5799 32.0589 12.1174L40.732 9.03076C40.732 9.03076 45.3216 17.6808 37.5397 27.7396L41.6691 30.4687C41.6691 30.4687 42.1419 30.7883 41.6022 31.3602L30.7242 39.8379C30.7242 39.8379 30.1887 40.2626 29.8122 39.7369L27.8374 35.5318C27.8374 35.5318 19.3777 40.1238 10.4828 37.0667C1.25331 33.8918 -0.0645995 25.5235 0.00234181 23.5344L7.60855 20.8221Z" fill="white"/>
</svg>
